<?xml version="1.0" encoding="UTF-8"?> <svg xmlns="http://www.w3.org/2000/svg" width="470" height="463" viewBox="0 0 470 463" fill="none"><rect width="470" height="463" rx="20" fill="url(#paint0_linear)"></rect><mask id="mask0" maskUnits="userSpaceOnUse" x="0" y="0" width="470" height="463"><rect width="470" height="463" rx="20" fill="url(#paint1_linear)"></rect></mask><g mask="url(#mask0)"><path d="M747.5 504.948C707.537 465.285 320.343 88.8061 318.863 87.8268C268.371 85.9019 252.191 138.649 218.043 140.307C197.804 141.29 160.195 99.3061 160.195 99.3061L113.916 117.346C113.384 157.498 108.958 364.989 108.958 364.989C108.958 364.989 466.524 716.502 499.58 749.309C630.151 727.989 735.93 608.268 747.5 504.948Z" fill="url(#paint2_linear)" fill-opacity="0.5"></path><path d="M328.36 359.979C328.36 364.982 324.159 369.151 318.697 369.151H113.663C108.202 369.151 104 364.982 104 359.979V88.1601C104 83.1573 108.202 78.9883 113.663 78.9883H319.117C324.159 78.9883 328.78 83.1573 328.78 88.1601V359.979H328.36Z" fill="#CBC7C2"></path><path d="M312.253 348.167C312.253 349.405 311.43 350.231 310.196 350.231H122.585C121.351 350.231 120.528 349.405 120.528 348.167V96.4519C120.528 95.214 121.351 94.3887 122.585 94.3887H310.196C311.43 94.3887 312.253 95.214 312.253 96.4519V348.167Z" fill="white"></path><path d="M238.004 65.5753C238.639 63.0028 239.275 60.4302 239.275 57.8576C239.275 44.9948 229.74 35.3477 217.026 35.3477C204.312 35.3477 194.777 44.9948 194.777 57.8576C194.777 61.0733 195.412 63.6459 196.684 66.2185H152.278C151.174 66.2185 150.278 67.1139 150.278 68.2185V104.228H282.502V67.5753C282.502 66.4708 281.607 65.5753 280.502 65.5753H238.004Z" fill="#FFA524"></path><path d="M165.816 152.306C161.194 158.142 155.732 163.145 150.27 168.565C146.069 164.813 142.287 160.644 138.506 156.475C139.766 154.807 141.447 152.723 143.128 151.472C146.069 153.556 147.749 156.475 150.69 158.976C154.472 155.641 157.833 151.889 161.194 148.137C163.295 148.971 164.135 151.055 165.816 152.306Z" fill="#FFA524"></path><path d="M282.807 153.615H179.723C178.066 153.615 176.723 154.958 176.723 156.615V160.455C176.723 162.112 178.066 163.455 179.723 163.455H282.807C284.464 163.455 285.807 162.112 285.807 160.455V156.615C285.807 154.958 284.464 153.615 282.807 153.615Z" fill="#CBC7C2"></path><path d="M165.399 193.165C160.777 199.002 155.315 204.005 149.853 209.424C145.652 205.672 141.87 201.503 138.089 197.334C139.349 195.667 141.03 193.582 142.711 192.331C145.652 194.416 147.332 197.334 150.273 199.836C154.055 196.5 157.416 192.748 160.777 188.996C162.458 189.83 163.718 191.498 165.399 193.165Z" fill="#FFA524"></path><path d="M282.807 194.467H179.723C178.066 194.467 176.723 195.81 176.723 197.467V201.307C176.723 202.964 178.066 204.307 179.723 204.307H282.807C284.464 204.307 285.807 202.964 285.807 201.307V197.467C285.807 195.81 284.464 194.467 282.807 194.467Z" fill="#CBC7C2"></path><path d="M166.658 235.685C162.037 241.521 156.575 246.524 151.113 251.944C146.911 248.192 143.13 244.023 139.349 239.854C140.609 238.186 142.29 236.102 143.97 234.851C146.911 236.935 148.592 239.854 151.533 242.355C154.894 239.02 158.676 235.268 162.037 231.516C164.137 232.349 164.978 234.434 166.658 235.685Z" fill="#FFA524"></path><path d="M282.807 236.992H179.723C178.066 236.992 176.723 238.335 176.723 239.992V243.832C176.723 245.489 178.066 246.832 179.723 246.832H282.807C284.464 246.832 285.807 245.489 285.807 243.832V239.992C285.807 238.335 284.464 236.992 282.807 236.992Z" fill="#CBC7C2"></path><path d="M166.658 278.21C162.037 284.047 156.575 289.049 151.113 294.469C146.911 290.717 143.13 286.548 139.349 282.379C140.609 280.711 142.29 278.627 143.97 277.376C146.911 279.461 148.592 282.379 151.533 284.88C155.314 281.545 158.676 277.793 162.037 274.041C164.137 274.458 165.398 276.542 166.658 278.21Z" fill="#FFA524"></path><path d="M282.807 279.102H179.723C178.066 279.102 176.723 280.445 176.723 282.102V285.942C176.723 287.598 178.066 288.942 179.723 288.942H282.807C284.464 288.942 285.807 287.598 285.807 285.942V282.102C285.807 280.445 284.464 279.102 282.807 279.102Z" fill="#CBC7C2"></path></g><defs><linearGradient id="paint0_linear" x1="383.344" y1="14.6725" x2="-48.5196" y2="253.347" gradientUnits="userSpaceOnUse"><stop stop-color="#FDFCFE"></stop><stop offset="0.198756" stop-color="#F8F6FC"></stop><stop offset="1" stop-color="#FFF9FA"></stop></linearGradient><linearGradient id="paint1_linear" x1="383.344" y1="14.6725" x2="-48.5196" y2="253.347" gradientUnits="userSpaceOnUse"><stop stop-color="#FDFCFE"></stop><stop offset="0.198756" stop-color="#F8F6FC"></stop><stop offset="1" stop-color="#FFF9FA"></stop></linearGradient><linearGradient id="paint2_linear" x1="128" y1="229.832" x2="426.664" y2="539.295" gradientUnits="userSpaceOnUse"><stop stop-color="#D4D6DE" stop-opacity="0.44"></stop><stop offset="1" stop-color="#F3F5F6" stop-opacity="0.57"></stop></linearGradient></defs></svg> 